<?xml version="1.0" encoding="iso-8859-1"?>
<svg xmlns="http://www.w3.org/2000/svg" height="512pt" version="1.1" viewBox="0 0 512.00018 512" width="512pt">
<g id="surface1">
<path d="M 512 255.898438 C 512 397.226562 397.429688 511.792969 256.101562 511.792969 C 114.773438 511.792969 0.207031 397.226562 0.207031 255.898438 C 0.207031 114.570312 114.773438 0 256.101562 0 C 397.429688 0 512 114.570312 512 255.898438 Z M 512 255.898438 " style=" stroke:none;fill-rule:nonzero;fill:rgb(21.960784%,23.529412%,41.960784%);fill-opacity:1;" />
<path d="M 444.957031 19.824219 L 417.296875 60.695312 C 414.449219 64.910156 413.75 70.222656 415.421875 75.027344 L 425.363281 103.636719 L 470.015625 58.984375 L 455.140625 21.910156 C 453.476562 17.761719 448.117188 16.664062 444.957031 19.824219 Z M 444.957031 19.824219 " style=" stroke:none;fill-rule:nonzero;fill:rgb(35.686275%,70.980392%,90.588235%);fill-opacity:1;" />
<path d="M 509.175781 84.039062 L 468.300781 111.699219 C 464.085938 114.550781 458.777344 115.246094 453.96875 113.578125 L 425.359375 103.636719 L 470.011719 58.984375 L 507.089844 73.855469 C 511.238281 75.519531 512.335938 80.878906 509.175781 84.039062 Z M 509.175781 84.039062 " style=" stroke:none;fill-rule:nonzero;fill:rgb(35.686275%,70.980392%,90.588235%);fill-opacity:1;" />
<path d="M 430.910156 40.710938 L 431.183594 40.179688 L 417.296875 60.695312 C 414.449219 64.910156 413.75 70.222656 415.421875 75.027344 L 425.363281 103.636719 L 447.839844 81.15625 L 432.449219 53.179688 C 429.863281 48.480469 429.292969 43.859375 430.910156 40.710938 Z M 430.910156 40.710938 " style=" stroke:none;fill-rule:nonzero;fill:rgb(27.843137%,58.823529%,80.392157%);fill-opacity:1;" />
<path d="M 488.289062 98.089844 C 485.140625 99.703125 480.515625 99.132812 475.816406 96.546875 L 447.839844 81.160156 L 425.363281 103.636719 L 453.96875 113.578125 C 458.777344 115.246094 464.089844 114.550781 468.300781 111.699219 L 488.816406 97.816406 Z M 488.289062 98.089844 " style=" stroke:none;fill-rule:nonzero;fill:rgb(27.843137%,58.823529%,80.392157%);fill-opacity:1;" />
<path d="M 256.101562 511.792969 C 317.554688 511.792969 373.9375 490.125 418.050781 454.023438 C 487.824219 357.972656 479.417969 222.792969 392.8125 136.183594 C 296.882812 40.253906 141.347656 40.253906 45.414062 136.183594 C 32.875 148.722656 22.007812 162.292969 12.746094 176.605469 C -41.105469 342.003906 82.4375 511.792969 256.101562 511.792969 Z M 256.101562 511.792969 " style=" stroke:none;fill-rule:nonzero;fill:rgb(99.607843%,31.372549%,37.254902%);fill-opacity:1;" />
<path d="M 309.691406 498.390625 C 177.035156 498.390625 69.496094 390.851562 69.496094 258.195312 C 69.496094 183.046875 104.011719 115.972656 158.046875 71.929688 C 116.78125 82.476562 77.71875 103.882812 45.417969 136.183594 C 32.878906 148.722656 22.007812 162.296875 12.75 176.605469 C -41.105469 342.003906 82.4375 511.796875 256.105469 511.796875 C 287.546875 511.796875 317.65625 506.109375 345.480469 495.734375 C 333.804688 497.476562 321.855469 498.390625 309.691406 498.390625 Z M 309.691406 498.390625 " style=" stroke:none;fill-rule:nonzero;fill:rgb(87.058824%,21.176471%,28.235294%);fill-opacity:1;" />
<path d="M 354.320312 174.671875 C 279.648438 99.996094 158.574219 99.996094 83.902344 174.671875 C 9.226562 249.347656 9.226562 370.417969 83.902344 445.09375 C 158.574219 519.765625 279.648438 519.765625 354.320312 445.09375 C 428.996094 370.417969 428.996094 249.347656 354.320312 174.671875 Z M 354.320312 174.671875 " style=" stroke:none;fill-rule:nonzero;fill:rgb(98.823529%,95.686275%,87.058824%);fill-opacity:1;" />
<path d="M 84.75 173.847656 C 84.46875 174.125 84.183594 174.394531 83.902344 174.671875 C 9.429688 249.148438 8.664062 370.988281 85.015625 446.175781 C 101.625 461.121094 120.199219 473.925781 140.308594 484.148438 C 180.550781 502.339844 225.792969 505.878906 267.984375 494.769531 C 120.144531 468.886719 32.042969 314.304688 84.75 173.847656 Z M 84.75 173.847656 " style=" stroke:none;fill-rule:nonzero;fill:rgb(100%,93.72549%,74.509804%);fill-opacity:1;" />
<path d="M 315.328125 213.664062 C 262.1875 160.527344 176.035156 160.527344 122.894531 213.664062 C 69.753906 266.804688 69.753906 352.960938 122.894531 406.097656 C 176.035156 459.238281 262.1875 459.238281 315.328125 406.097656 C 368.46875 352.960938 368.46875 266.804688 315.328125 213.664062 Z M 315.328125 213.664062 " style=" stroke:none;fill-rule:nonzero;fill:rgb(99.607843%,31.372549%,37.254902%);fill-opacity:1;" />
<path d="M 289.785156 270.078125 C 267.367188 231.25 217.71875 217.949219 178.890625 240.367188 C 140.0625 262.785156 126.761719 312.433594 149.179688 351.261719 C 171.597656 390.085938 221.246094 403.390625 260.070312 380.972656 C 298.898438 358.554688 312.203125 308.90625 289.785156 270.078125 Z M 289.785156 270.078125 " style=" stroke:none;fill-rule:nonzero;fill:rgb(100%,67.45098%,0%);fill-opacity:1;" />
<path d="M 184.675781 330.777344 C 165.796875 298.078125 172.253906 257.710938 197.949219 232.386719 C 191.429688 234.1875 185.027344 236.832031 178.894531 240.371094 C 140.066406 262.789062 126.761719 312.4375 149.179688 351.269531 C 171.597656 390.097656 221.25 403.398438 260.078125 380.984375 C 266.207031 377.441406 271.699219 373.222656 276.515625 368.472656 C 241.742188 378.066406 203.550781 363.472656 184.675781 330.777344 Z M 184.675781 330.777344 " style=" stroke:none;fill-rule:nonzero;fill:rgb(100%,52.156863%,0%);fill-opacity:1;" />
<path d="M 256.871094 272.128906 C 253.121094 268.378906 253.121094 262.300781 256.871094 258.554688 L 472.101562 43.320312 C 475.851562 39.570312 481.929688 39.570312 485.679688 43.320312 C 489.429688 47.070312 489.429688 53.148438 485.679688 56.894531 L 270.445312 272.128906 C 266.695312 275.878906 260.617188 275.875 256.871094 272.128906 Z M 256.871094 272.128906 " style=" stroke:none;fill-rule:nonzero;fill:rgb(39.215686%,40.392157%,61.176471%);fill-opacity:1;" />
<path d="M 229.496094 301.078125 L 229.085938 301.078125 L 229.085938 284.316406 L 240.976562 284.316406 C 246.277344 284.316406 250.574219 280.015625 250.574219 274.714844 C 250.574219 269.414062 246.277344 265.117188 240.976562 265.117188 L 229.085938 265.117188 L 229.085938 261.066406 C 229.085938 255.765625 224.789062 251.46875 219.484375 251.46875 C 214.183594 251.46875 209.886719 255.765625 209.886719 261.066406 L 209.886719 265.117188 L 209.476562 265.117188 C 194.269531 265.117188 181.898438 277.488281 181.898438 292.695312 C 181.898438 307.902344 194.269531 320.277344 209.476562 320.277344 L 209.886719 320.277344 L 209.886719 337.039062 L 197.996094 337.039062 C 192.695312 337.039062 188.398438 341.335938 188.398438 346.636719 C 188.398438 351.941406 192.695312 356.238281 197.996094 356.238281 L 209.886719 356.238281 L 209.886719 360.285156 C 209.886719 365.585938 214.183594 369.882812 219.484375 369.882812 C 224.789062 369.882812 229.085938 365.585938 229.085938 360.285156 L 229.085938 356.238281 L 229.496094 356.238281 C 244.703125 356.238281 257.074219 343.863281 257.074219 328.65625 C 257.074219 313.449219 244.703125 301.078125 229.496094 301.078125 Z M 209.476562 301.078125 C 204.855469 301.078125 201.097656 297.320312 201.097656 292.695312 C 201.097656 288.074219 204.855469 284.316406 209.476562 284.316406 L 209.886719 284.316406 L 209.886719 301.078125 Z M 229.496094 337.039062 L 229.085938 337.039062 L 229.085938 320.277344 L 229.496094 320.277344 C 234.117188 320.277344 237.875 324.035156 237.875 328.65625 C 237.878906 333.277344 234.117188 337.039062 229.496094 337.039062 Z M 229.496094 337.039062 " style=" stroke:none;fill-rule:nonzero;fill:rgb(100%,80.392157%,21.960784%);fill-opacity:1;" />
<path d="M 345.210938 170.210938 L 256.871094 258.554688 C 253.121094 262.300781 253.121094 268.378906 256.871094 272.128906 C 260.621094 275.878906 266.695312 275.878906 270.445312 272.128906 L 358.804688 183.769531 C 350.265625 187.496094 341.492188 178.800781 345.210938 170.210938 Z M 345.210938 170.210938 " style=" stroke:none;fill-rule:nonzero;fill:rgb(27.843137%,28.627451%,47.45098%);fill-opacity:1;" />
</g>
</svg>